<?xml version="1.0" encoding="UTF-8"?>
<svg id="Layer_1" data-name="Layer 1" xmlns="http://www.w3.org/2000/svg" viewBox="0 0 328.855 330.188">
  <defs>
    <style>
      .cls-1 {
        fill: #fff;
      }
    </style>
  </defs>
  <path class="cls-1" d="M169.486,0l-.182.016c-23.637,2.465,2.237,18.548,9.398,24.798,9.069,7.33,17.755,15.74,24.579,25.24,25.127,34.596,27.646,83.835,6.133,120.932-44.871,79.428-156.075,66.579-188.131-16.483-2.524-5.556-4.952-11.094-7.258-15.206C.767,115.719-.093,156.325.017,164.808c-1.157,76.524,55.32,146.426,129.656,161.706,58.94,12.971,123.639-9.023,161.676-56.216C377.856,165.351,305.346,1.807,169.486,0Z"/>
  <path class="cls-1" d="M127.397,203.165c.136-5.475-7.618-11.534-11.267-16.012-3.846-4.201-7.509-8.782-10.235-13.823-13.743-24.094-4.987-56.72,19.262-69.991.384-.221.771-.437,1.16-.647,16.256-8.77,37.341-7.994,52.832,2.29,8.412,5.179,15.575,14.913,22.824,20.723,6.057,4.875,8.883.503,9.818-4.988,3.473-24.378-7.989-53.775-25.63-71.457-.202-.203-.405-.404-.609-.604-11.399-11.585-26.551-20.129-42.443-24.269C66.012,3.814,1.341,84.456,36.297,156.107c11.355,23.745,32.628,41.432,57.665,48.543,8.742,2.485,31.034,6.336,33.424-1.414l.011-.071Z"/>
  <ellipse class="cls-1" cx="153.776" cy="152.167" rx="42.132" ry="42.311"/>
</svg>